<svg version="1.2" xmlns="http://www.w3.org/2000/svg" viewBox="0 0 1545 430" width="1545" height="430">
	<title>traffiguraaaa-svg</title>
	<style>
		.s0 { fill: #ffffff } 
	</style>
	<path id="Layer" fill-rule="evenodd" class="s0" d="m77.6 249.9v-199.1c0-2.2-1.3-3.6-3.6-3.6h-70.4c-2.3 0-3.6-1.2-3.6-3.5v-33c0-2.4 1.2-3.6 3.6-3.6h190.8c2.3 0 3.6 1.2 3.6 3.6v33c0 2.2-1.2 3.5-3.6 3.5h-70.6c-2.2 0-3.5 1.3-3.5 3.6v199.2c0 2.2-1.3 3.5-3.6 3.5h-35.6c-2.3-0.1-3.5-1.3-3.5-3.6zm121.7 0v-172.4c0-2.3 1.3-3.6 3.6-3.6h24.7c2 0 3.2 0.7 3.7 3.1l4.8 18.8c0.7 2.8 2.8 3.3 4.6 0.7 11.7-14.7 25.9-22.6 51.1-22.6h18c2.3 0 3.6 1.2 3.6 3.6v34.8c0 2.2-1.2 3.6-3.6 3.6h-23.3c-28.5 0-47 10.7-47 50.5v83.6c0 2.2-1.2 3.5-3.6 3.5h-33.1c-2.2-0.1-3.5-1.3-3.5-3.6zm129.7-86.4c0-56.6 38.1-93.1 92.2-93.7 25.2-0.2 43.2 6.7 56 18.1 2.2 2 4.2 1 4.2-2.1v-8.3c0-2.3 1.3-3.6 3.6-3.6h33c2.3 0 3.6 1.2 3.6 3.6v172.5c0 2.2-1.2 3.5-3.6 3.5h-24.6c-2.1 0-3.3-0.7-3.8-3l-3.6-14.5c-0.7-3-2.2-3.8-3.5-2.2-13.3 15.2-33.4 24.1-62.8 23.8-53.1-0.6-90.7-37.4-90.7-94.1zm152.4 0c0-37-25.1-55.9-55.9-55.9-31.3 0-56.5 20.1-56.5 55.9 0 35.9 25.2 56.1 56.5 56.1 30.8 0.1 55.9-18.9 55.9-56.1zm115 86.4v-136.7c0-2.2-1.2-3.5-3.6-3.5h-39.9c-2.3 0-3.6-1.3-3.6-3.6v-28.6c0-2.3 1.2-3.6 3.6-3.6h39.9c2.3 0 3.6-1.2 3.6-3.5 2-57.7 32.3-70.4 78.1-70.4h11.9c2.2 0 3.6 1.2 3.6 3.6v29.4c0 2.2-1.3 3.6-3.6 3.6h-11.4c-23.4 0-38.5 5.8-38.5 32.7v1.1c0 2.2 1.3 3.5 3.6 3.5h46.3c2.2 0 3.6 1.2 3.6 3.6v28.7c0 2.2-1.3 3.6-3.6 3.6h-46.3c-2.2 0-3.6 1.2-3.6 3.5v136.7c0 2.2-1.2 3.5-3.5 3.5h-33c-2.4-0.1-3.6-1.3-3.6-3.6zm121.3-249.9h36c2.3 0 3.6 1.2 3.6 3.6v36c0 2.2-1.2 3.6-3.6 3.6h-36c-2.3 0-3.6-1.3-3.6-3.6v-36c0-2.4 1.2-3.6 3.6-3.6zm-2.1 249.9v-172.4c0-2.3 1.3-3.6 3.6-3.6h33c2.3 0 3.6 1.2 3.6 3.6v172.5c0 2.2-1.2 3.5-3.6 3.5h-33c-2.3-0.1-3.6-1.3-3.6-3.6zm72.7 89.3c0-34.8 16.8-58.1 43.2-78.1l26.2-20.1c2.2-1.7 2-3.8-1-4.6-36.1-9.7-62.3-39.6-62.3-81.2 0-50.5 38.9-84.6 87.5-84.6 19 0 35.5 4.7 49.3 14.4 2 1.7 4.1 1 4.6-1.5l1.5-6.6c0.5-2.3 2-3.1 4.1-3.1h24.3c2.3 0 3.6 1.2 3.6 3.6v72.6c0 40.9-16.5 59.4-38.6 76.4l-26.7 20.4c-2.6 2-2.1 4.1 1 4.6 40.4 9.3 70.1 42.4 70.1 87.8 0 53.9-42 90.3-93.2 90.3-51.9 0-93.6-36.4-93.6-90.3zm146.6-0.1c0-28.9-23.8-52.4-53.2-52.4-29.4 0-53.3 23.5-53.3 52.4 0 29 23.9 52.5 53.3 52.5 29.4 0 53.2-23.5 53.2-52.5zm-5-184c0-27.2-21.6-49.1-48.2-49.1-26.6 0-48.2 21.9-48.2 49.1 0 27.2 21.6 49.1 48.2 49.1 26.6 0 48.2-21.9 48.2-49.1zm80.9 18.9v-96.5c0-2.3 1.2-3.6 3.5-3.6h33.1c2.2 0 3.5 1.2 3.5 3.6v94.5c0 36.3 14.5 47.9 38.6 47.9 32.1 0 48.6-25.1 48.6-56.4v-86c0-2.3 1.2-3.6 3.5-3.6h33c2.3 0 3.6 1.2 3.6 3.6v172.5c0 2.2-1.2 3.5-3.6 3.5h-24.6c-2.1 0-3.3-0.7-3.8-3l-4.6-18.4c-0.7-3-2.5-4-3.5-2.2-9.9 15.5-31 27.7-58 27.7-46-0.1-69.3-30.9-69.3-83.6zm212 75.9v-172.4c0-2.3 1.2-3.6 3.5-3.6h24.7c2 0 3.2 0.7 3.7 3.1l4.9 18.7c0.8 2.8 2.8 3.3 4.6 0.7 11.8-14.7 25.9-22.6 51.1-22.6h18c2.3 0 3.6 1.2 3.6 3.6v34.8c0 2.2-1.2 3.6-3.6 3.6h-23.3c-28.4 0-47 10.7-47 50.5v83.6c0 2.2-1.2 3.5-3.6 3.5h-33c-2.4 0-3.6-1.2-3.6-3.5zm129.6-86.4c0-56.6 38.1-93.1 92.2-93.7 25.2-0.2 43.2 6.7 56 18.1 2.2 2 4.2 1 4.2-2.1v-8.3c0-2.3 1.3-3.6 3.6-3.6h33c2.3 0 3.6 1.2 3.6 3.6v172.5c0 2.2-1.2 3.5-3.6 3.5h-24.6c-2.1 0-3.3-0.7-3.8-3l-3.6-14.5c-0.7-3-2.2-3.8-3.5-2.2-13.3 15.2-33.4 24.1-62.8 23.8-53.1-0.6-90.7-37.4-90.7-94.1zm152.5 0c0-37-25.1-55.9-55.9-55.9-31.3 0-56.5 20.1-56.5 55.9 0 35.9 25.2 56.1 56.5 56.1 30.8 0.1 55.9-18.9 55.9-56.1z"/>
</svg>
